<?xml version="1.0" encoding="UTF-8" standalone="no"?>
<svg
   viewBox="0 0 82.199996 32"
   version="1.1"
   id="svg4"
   width="82.199997"
   height="32"
   xmlns="http://www.w3.org/2000/svg"
   xmlns:svg="http://www.w3.org/2000/svg">
  <defs
     id="defs8" />
  <path
     d="m 12.199986,17.29998 c -0.2,-0.2 -0.4,-0.4 -0.7,-0.5 -0.299999,-0.100001 -0.499999,-0.2 -0.799999,-0.2 -0.299999,0 -0.599999,0.100002 -0.7999986,0.2 -0.2999996,0.100002 -0.4999994,0.3 -0.6999992,0.5 -0.1999998,0.2 -0.2999996,0.399999 -0.3999995,0.699999 -0.099999,0.299999 -0.1999998,0.599999 -0.1999998,0.899999 0,0.3 0.1,0.599999 0.1999998,0.899999 0.1,0.199999 0.1999997,0.399999 0.3999995,0.599999 0.1999998,0.2 0.3999996,0.399999 0.6999992,0.5 0.2999996,0.100001 0.4999996,0.199999 0.7999986,0.199999 0.3,0 0.599999,-0.100002 0.799999,-0.199999 0.3,-0.100002 0.5,-0.3 0.7,-0.5 0.199999,-0.2 0.3,-0.4 0.499999,-0.699999 0.100001,-0.3 0.2,-0.499999 0.2,-0.799999 0,-0.3 -0.100002,-0.6 -0.2,-0.899999 -0.100002,-0.3 -0.3,-0.499999 -0.499999,-0.699999 z m 10.399988,0 c -0.2,-0.2 -0.4,-0.4 -0.7,-0.5 -0.299999,-0.100001 -0.5,-0.2 -0.799999,-0.2 -0.3,0 -0.599999,0.100002 -0.799998,0.2 -0.300001,0.100002 -0.5,0.3 -0.7,0.5 -0.2,0.2 -0.3,0.399999 -0.5,0.699999 -0.100001,0.299999 -0.199999,0.599999 -0.199999,0.899999 0,0.3 0.100002,0.599999 0.199999,0.899999 0.100002,0.3 0.3,0.5 0.5,0.699999 0.2,0.2 0.399999,0.4 0.7,0.499999 0.299999,0.100002 0.499998,0.2 0.799998,0.2 0.299999,0 0.6,-0.100001 0.799999,-0.2 0.3,-0.100001 0.5,-0.299999 0.7,-0.499999 0.199999,-0.199999 0.299999,-0.399999 0.499999,-0.699999 0.100002,-0.3 0.199999,-0.5 0.199999,-0.799999 0,-0.3 -0.100001,-0.599999 -0.199999,-0.899999 -0.2,-0.4 -0.3,-0.599999 -0.499999,-0.799999 z M 29.299966,0 H 2.6999968 A 2.6899968,2.6899968 0 0 0 0,2.6999968 V 29.399966 c 0,1.399998 1.1999986,2.599996 2.6999968,2.599996 H 29.399966 a 2.6899968,2.6899968 0 0 0 2.699997,-2.699996 V 2.6999968 C 31.999962,1.1999986 30.799964,0 29.299966,0 Z m -2.999997,20.799975 c -0.2,0.599999 -0.599999,1.2 -0.999999,1.599999 -0.399999,0.499999 -0.899999,0.799999 -1.499998,1.099999 -0.599999,0.299999 -1.199998,0.399999 -1.899998,0.399999 -1.199998,0 -2.199997,-0.499999 -2.899996,-1.399999 v 1.099999 h -3.299996 v -2.199998 c -0.200001,0.300001 -0.4,0.7 -0.699999,0.9 -0.4,0.499999 -0.9,0.799999 -1.499999,1.099999 -0.599999,0.3 -1.199998,0.399999 -1.899998,0.399999 -1.199998,0 -2.199997,-0.5 -2.8999961,-1.399998 v 1.099999 H 5.2999938 V 7.9999907 h 3.2999961 v 6.9999923 c 0.7999991,-0.799999 1.7999981,-1.299999 2.8999961,-1.299999 0.7,0 1.299999,0.100002 1.899998,0.399999 0.6,0.3 1.099999,0.6 1.499998,1.099999 l 0.599999,0.9 V 7.9999907 h 3.499997 v 6.9999923 c 0.799999,-0.799999 1.799997,-1.299999 2.899996,-1.299999 0.7,0 1.299999,0.100002 1.899998,0.399999 0.599999,0.3 1.099999,0.6 1.499998,1.099999 0.4,0.5 0.7,0.999999 0.999999,1.599998 0.2,0.599999 0.399999,1.299999 0.399999,1.999998 0,0.699999 -0.199999,1.399998 -0.399999,1.999997 z"
     id="path2"
     style="stroke-width:0.999999" />
  <g
     id="g25"
     transform="matrix(0.33515736,0,0,0.33515736,50.1,9)">
    <path
       d="m 7.579,10.123 h 14.204 c 4.169,0.035 7.19,1.237 9.063,3.604 1.873,2.367 2.491,5.6 1.855,9.699 -0.247,1.873 -0.795,3.71 -1.643,5.512 -0.813,1.802 -1.943,3.427 -3.392,4.876 -1.767,1.837 -3.657,3.003 -5.671,3.498 -2.014,0.495 -4.099,0.742 -6.254,0.742 H 9.381 L 7.367,48.124 H 0 L 7.579,10.123 v 0 m 6.201,6.042 -3.18,15.9 c 0.212,0.035 0.424,0.053 0.636,0.053 0.247,0 0.495,0 0.742,0 3.392,0.035 6.219,-0.3 8.48,-1.007 2.261,-0.742 3.781,-3.321 4.558,-7.738 0.636,-3.71 0,-5.848 -1.908,-6.413 -1.873,-0.565 -4.222,-0.83 -7.049,-0.795 -0.424,0.035 -0.83,0.053 -1.219,0.053 -0.353,0 -0.724,0 -1.113,0 l 0.053,-0.053"
       id="path10" />
    <path
       d="m 41.093,0 h 7.314 L 46.34,10.123 h 6.572 c 3.604,0.071 6.289,0.813 8.056,2.226 1.802,1.413 2.332,4.099 1.59,8.056 l -3.551,17.649 h -7.42 L 54.979,21.2 c 0.353,-1.767 0.247,-3.021 -0.318,-3.763 -0.565,-0.742 -1.784,-1.113 -3.657,-1.113 L 45.121,16.271 40.775,38.054 H 33.461 L 41.093,0 v 0"
       id="path12" />
    <path
       d="m 70.412,10.123 h 14.204 c 4.169,0.035 7.19,1.237 9.063,3.604 1.873,2.367 2.491,5.6 1.855,9.699 -0.247,1.873 -0.795,3.71 -1.643,5.512 -0.813,1.802 -1.943,3.427 -3.392,4.876 -1.767,1.837 -3.657,3.003 -5.671,3.498 -2.014,0.495 -4.099,0.742 -6.254,0.742 h -6.36 L 70.2,48.124 h -7.367 l 7.579,-38.001 v 0 m 6.201,6.042 -3.18,15.9 c 0.212,0.035 0.424,0.053 0.636,0.053 0.247,0 0.495,0 0.742,0 3.392,0.035 6.219,-0.3 8.48,-1.007 2.261,-0.742 3.781,-3.321 4.558,-7.738 0.636,-3.71 0,-5.848 -1.908,-6.413 -1.873,-0.565 -4.222,-0.83 -7.049,-0.795 -0.424,0.035 -0.83,0.053 -1.219,0.053 -0.353,0 -0.724,0 -1.113,0 l 0.053,-0.053"
       id="path14" />
  </g>
  <g
     style="fill:currentColor"
     id="g36"
     transform="translate(33.1,9.0029618)">
    <path
       d="m 8,4 a 0.5,0.5 0 0 1 0.5,0.5 v 3 h 3 a 0.5,0.5 0 0 1 0,1 h -3 v 3 a 0.5,0.5 0 0 1 -1,0 v -3 h -3 a 0.5,0.5 0 0 1 0,-1 h 3 v -3 A 0.5,0.5 0 0 1 8,4 Z"
       id="path27" />
  </g>
</svg>
